<svg width="40" height="20" viewBox="0 0 40 20" fill="none" xmlns="http://www.w3.org/2000/svg">
<path d="M2.48989 0H37.5101C38.9006 0 40 1.13177 40 2.4899V17.4939C40 18.8844 38.8682 19.9838 37.5101 19.9838H2.48989C1.09943 19.9838 0 18.8521 0 17.4939V2.4899C0 1.13177 1.13177 0 2.48989 0Z" fill="#F5C518"/>
<path d="M5.01208 15.6507H8.11637V4.36536H5.01208V15.6507Z" fill="black"/>
<path d="M14.8099 4.36536L14.0985 9.63617L13.6782 6.79058C13.5488 5.88516 13.4195 5.07676 13.3225 4.39769H9.37744V15.6507H12.029V8.21338L13.1608 15.6507H15.0363L16.1034 8.0517V15.6507H18.755V4.36536H14.8099Z" fill="black"/>
<path d="M20.0161 15.6507V4.36536H24.8989C25.9983 4.36536 26.9037 5.23844 26.9037 6.33787V13.6135C26.9037 14.713 25.9983 15.5861 24.8989 15.5861H20.0161V15.6507ZM23.6701 6.40254C23.5408 6.33787 23.3144 6.30554 22.9587 6.30554V13.6782C23.4114 13.6782 23.7025 13.5812 23.7995 13.4195C23.8965 13.2578 23.9611 12.8051 23.9611 12.0291V7.696C23.9611 7.17862 23.9288 6.85525 23.8965 6.72591C23.8641 6.56423 23.7995 6.46722 23.6701 6.40254Z" fill="black"/>
<path d="M32.789 7.21095H32.983C34.1148 7.21095 35.0202 8.08403 35.0202 9.18347V13.7105C35.0202 14.81 34.1148 15.6831 32.983 15.6831H32.789C32.1099 15.6831 31.4955 15.3597 31.1398 14.8423L30.9458 15.5214H28.1326V4.36536H31.1398V7.98702C31.5279 7.50198 32.1099 7.21095 32.789 7.21095ZM32.1423 12.6758V10.0242C32.1423 9.5715 32.1099 9.28047 32.0453 9.15113C31.9806 9.02178 31.7542 8.92478 31.5926 8.92478C31.4309 8.92478 31.1722 8.98945 31.1075 9.11879V10.0242V12.7728V13.6459C31.1722 13.7752 31.3985 13.8399 31.5926 13.8399C31.7542 13.8399 32.0129 13.7752 32.0453 13.6459C32.1423 13.5165 32.1423 13.1932 32.1423 12.6758Z" fill="black"/>
</svg>
