<svg width="21" height="18" viewBox="0 0 21 18" fill="none" xmlns="http://www.w3.org/2000/svg">
<path fill-rule="evenodd" clip-rule="evenodd" d="M15.0979 0H5.03262C2.26493 0 0 2.02432 0 4.5V13.5C0 15.9748 2.26493 18 5.03262 18H15.0979C17.8655 18 20.1305 15.9748 20.1305 13.5V4.5C20.1305 2.02432 17.8655 0 15.0979 0ZM10.0652 12.7499C7.74872 12.7499 5.8713 11.0704 5.8713 9C5.8713 6.92865 7.74872 5.24993 10.0652 5.24993C12.3807 5.24993 14.2592 6.92865 14.2592 9C14.2592 11.0704 12.3807 12.7499 10.0652 12.7499ZM14.2592 4.12492C14.2592 4.74615 14.8218 5.24992 15.5173 5.24992C16.2128 5.24992 16.7755 4.74615 16.7755 4.12492C16.7755 3.5037 16.2128 2.99992 15.5173 2.99992C14.8218 2.99992 14.2592 3.5037 14.2592 4.12492Z" fill="white"/>
</svg>
