<svg width="140" height="31" viewBox="0 0 140 31" fill="none" xmlns="http://www.w3.org/2000/svg">
<rect width="82" height="31" rx="4" fill="#38D0FA"/>
<path d="M11.7713 23H8.47585L13.4972 8.45455H17.4602L22.4744 23H19.179L15.5355 11.7784H15.4219L11.7713 23ZM11.5653 17.2827H19.3494V19.6832H11.5653V17.2827ZM27.7939 16.6932V23H24.7683V12.0909H27.6518V14.0156H27.7797C28.0212 13.3812 28.426 12.8793 28.9942 12.5099C29.5624 12.1359 30.2513 11.9489 31.0609 11.9489C31.8185 11.9489 32.479 12.1146 33.0425 12.446C33.6059 12.7775 34.0439 13.2509 34.3564 13.8665C34.6689 14.4773 34.8251 15.2064 34.8251 16.054V23H31.7996V16.5938C31.8043 15.9261 31.6339 15.4053 31.2882 15.0312C30.9426 14.6525 30.4667 14.4631 29.8607 14.4631C29.4535 14.4631 29.0936 14.5507 28.7811 14.7259C28.4733 14.901 28.2319 15.1567 28.0567 15.4929C27.8862 15.8243 27.7986 16.2244 27.7939 16.6932ZM37.8097 23V12.0909H40.8353V23H37.8097ZM39.3296 10.6847C38.8798 10.6847 38.4939 10.5355 38.1719 10.2372C37.8547 9.93419 37.6961 9.57197 37.6961 9.15057C37.6961 8.7339 37.8547 8.37642 38.1719 8.07812C38.4939 7.77509 38.8798 7.62358 39.3296 7.62358C39.7794 7.62358 40.163 7.77509 40.4802 8.07812C40.8022 8.37642 40.9631 8.7339 40.9631 9.15057C40.9631 9.57197 40.8022 9.93419 40.4802 10.2372C40.163 10.5355 39.7794 10.6847 39.3296 10.6847ZM43.8589 23V12.0909H46.7425V14.0156H46.8703C47.0976 13.3764 47.4764 12.8722 48.0067 12.5028C48.537 12.1335 49.1714 11.9489 49.9101 11.9489C50.6582 11.9489 51.295 12.1359 51.8206 12.5099C52.3462 12.8793 52.6965 13.3812 52.8717 14.0156H52.9854C53.2079 13.3906 53.6104 12.8911 54.1928 12.517C54.7799 12.1383 55.4735 11.9489 56.2737 11.9489C57.2917 11.9489 58.1179 12.2732 58.7524 12.9219C59.3916 13.5658 59.7112 14.4796 59.7112 15.6634V23H56.6928V16.2599C56.6928 15.6539 56.5318 15.1993 56.2098 14.8963C55.8878 14.5933 55.4854 14.4418 55.0024 14.4418C54.4532 14.4418 54.0247 14.617 53.7169 14.9673C53.4091 15.313 53.2553 15.7699 53.2553 16.3381V23H50.322V16.196C50.322 15.661 50.1681 15.2348 49.8604 14.9176C49.5573 14.6004 49.1572 14.4418 48.6601 14.4418C48.3239 14.4418 48.0209 14.527 47.751 14.6974C47.4858 14.8632 47.2751 15.0975 47.1189 15.4006C46.9626 15.6989 46.8845 16.0492 46.8845 16.4517V23H43.8589ZM65.8119 23.206C65.1159 23.206 64.4956 23.0852 63.9511 22.8438C63.4066 22.5975 62.9758 22.2353 62.6585 21.7571C62.346 21.2741 62.1898 20.6728 62.1898 19.9531C62.1898 19.3471 62.301 18.8381 62.5236 18.4261C62.7461 18.0142 63.0491 17.6828 63.4327 17.4318C63.8162 17.1809 64.2518 16.9915 64.7395 16.8636C65.2319 16.7358 65.748 16.6458 66.2878 16.5938C66.9223 16.5275 67.4336 16.4659 67.8219 16.4091C68.2101 16.3475 68.4919 16.2576 68.667 16.1392C68.8422 16.0208 68.9298 15.8456 68.9298 15.6136V15.571C68.9298 15.1212 68.7878 14.7732 68.5037 14.527C68.2243 14.2808 67.8266 14.1577 67.3105 14.1577C66.766 14.1577 66.3328 14.2784 66.0108 14.5199C65.6888 14.7566 65.4758 15.0549 65.3716 15.4148L62.5733 15.1875C62.7153 14.5246 62.9947 13.9517 63.4114 13.4688C63.828 12.9811 64.3654 12.607 65.0236 12.3466C65.6865 12.0814 66.4535 11.9489 67.3247 11.9489C67.9308 11.9489 68.5108 12.0199 69.0648 12.1619C69.6235 12.304 70.1183 12.5241 70.5491 12.8224C70.9848 13.1207 71.328 13.5043 71.579 13.973C71.8299 14.437 71.9554 14.9934 71.9554 15.642V23H69.0861V21.4872H69.0009C68.8257 21.8281 68.5913 22.1288 68.2977 22.3892C68.0042 22.6449 67.6514 22.8461 67.2395 22.9929C66.8276 23.1349 66.3517 23.206 65.8119 23.206ZM66.6784 21.1179C67.1235 21.1179 67.5165 21.0303 67.8574 20.8551C68.1983 20.6752 68.4658 20.4337 68.6599 20.1307C68.8541 19.8277 68.9511 19.4844 68.9511 19.1009V17.9432C68.8564 18.0047 68.7262 18.0616 68.5605 18.1136C68.3995 18.161 68.2172 18.206 68.0136 18.2486C67.81 18.2865 67.6064 18.322 67.4028 18.3551C67.1992 18.3835 67.0146 18.4096 66.8489 18.4332C66.4938 18.4853 66.1836 18.5682 65.9185 18.6818C65.6533 18.7955 65.4474 18.9493 65.3006 19.1435C65.1538 19.3329 65.0804 19.5696 65.0804 19.8537C65.0804 20.2656 65.2295 20.5805 65.5278 20.7983C65.8309 21.0114 66.2144 21.1179 66.6784 21.1179Z" fill="#202020"/>
<path d="M91.2642 23V8.45455H97.0881C98.1581 8.45455 99.0507 8.61316 99.7656 8.9304C100.481 9.24763 101.018 9.68797 101.378 10.2514C101.738 10.8101 101.918 11.4541 101.918 12.1832C101.918 12.7514 101.804 13.2509 101.577 13.6818C101.349 14.108 101.037 14.4583 100.639 14.733C100.246 15.0028 99.7964 15.1946 99.2898 15.3082V15.4503C99.8438 15.474 100.362 15.6302 100.845 15.919C101.333 16.2079 101.728 16.6127 102.031 17.1335C102.334 17.6496 102.486 18.2652 102.486 18.9801C102.486 19.7519 102.294 20.4408 101.911 21.0469C101.532 21.6482 100.971 22.1241 100.227 22.4744C99.4839 22.8248 98.5677 23 97.4787 23H91.2642ZM94.3395 20.4858H96.8466C97.7036 20.4858 98.3286 20.3224 98.7216 19.9957C99.1146 19.6643 99.3111 19.224 99.3111 18.6747C99.3111 18.2723 99.214 17.9171 99.0199 17.6094C98.8258 17.3016 98.5488 17.0601 98.1889 16.8849C97.8338 16.7098 97.41 16.6222 96.9176 16.6222H94.3395V20.4858ZM94.3395 14.5412H96.6193C97.0407 14.5412 97.4148 14.4678 97.7415 14.321C98.0729 14.1695 98.3333 13.9564 98.5227 13.6818C98.7169 13.4072 98.8139 13.0781 98.8139 12.6946C98.8139 12.169 98.6269 11.7453 98.2528 11.4233C97.8835 11.1013 97.358 10.9403 96.6761 10.9403H94.3395V14.5412ZM109.959 23.2131C108.856 23.2131 107.902 22.9787 107.097 22.5099C106.297 22.0365 105.679 21.3783 105.243 20.5355C104.808 19.688 104.59 18.7055 104.59 17.5881C104.59 16.4612 104.808 15.4763 105.243 14.6335C105.679 13.786 106.297 13.1278 107.097 12.6591C107.902 12.1856 108.856 11.9489 109.959 11.9489C111.062 11.9489 112.014 12.1856 112.814 12.6591C113.619 13.1278 114.239 13.786 114.675 14.6335C115.111 15.4763 115.328 16.4612 115.328 17.5881C115.328 18.7055 115.111 19.688 114.675 20.5355C114.239 21.3783 113.619 22.0365 112.814 22.5099C112.014 22.9787 111.062 23.2131 109.959 23.2131ZM109.973 20.8693C110.475 20.8693 110.894 20.7273 111.23 20.4432C111.567 20.1544 111.82 19.7614 111.99 19.2642C112.165 18.767 112.253 18.2012 112.253 17.5668C112.253 16.9323 112.165 16.3665 111.99 15.8693C111.82 15.3722 111.567 14.9792 111.23 14.6903C110.894 14.4015 110.475 14.2571 109.973 14.2571C109.467 14.2571 109.04 14.4015 108.695 14.6903C108.354 14.9792 108.096 15.3722 107.921 15.8693C107.75 16.3665 107.665 16.9323 107.665 17.5668C107.665 18.2012 107.75 18.767 107.921 19.2642C108.096 19.7614 108.354 20.1544 108.695 20.4432C109.04 20.7273 109.467 20.8693 109.973 20.8693ZM126.972 15.2017L124.202 15.3722C124.155 15.1354 124.053 14.9223 123.897 14.733C123.741 14.5388 123.535 14.3849 123.279 14.2713C123.028 14.1529 122.728 14.0938 122.377 14.0938C121.908 14.0938 121.513 14.1932 121.191 14.392C120.869 14.5862 120.708 14.8466 120.708 15.1733C120.708 15.4337 120.812 15.6539 121.021 15.8338C121.229 16.0137 121.586 16.1581 122.093 16.267L124.068 16.6648C125.128 16.8826 125.919 17.233 126.44 17.7159C126.961 18.1989 127.221 18.8333 127.221 19.6193C127.221 20.3343 127.01 20.9616 126.589 21.5014C126.172 22.0412 125.599 22.4626 124.87 22.7656C124.146 23.0639 123.31 23.2131 122.363 23.2131C120.919 23.2131 119.768 22.9124 118.911 22.3111C118.059 21.705 117.559 20.8812 117.413 19.8395L120.389 19.6832C120.479 20.1236 120.696 20.4598 121.042 20.6918C121.388 20.919 121.83 21.0327 122.37 21.0327C122.9 21.0327 123.327 20.9309 123.649 20.7273C123.975 20.5189 124.141 20.2514 124.146 19.9247C124.141 19.6501 124.025 19.4252 123.798 19.25C123.57 19.0701 123.22 18.9328 122.747 18.8381L120.857 18.4616C119.792 18.2486 118.999 17.8793 118.478 17.3537C117.962 16.8281 117.704 16.1581 117.704 15.3438C117.704 14.643 117.893 14.0393 118.272 13.5327C118.656 13.026 119.193 12.6354 119.884 12.3608C120.58 12.0862 121.395 11.9489 122.327 11.9489C123.705 11.9489 124.79 12.2401 125.58 12.8224C126.376 13.4048 126.84 14.1979 126.972 15.2017ZM138.803 15.2017L136.033 15.3722C135.986 15.1354 135.884 14.9223 135.728 14.733C135.571 14.5388 135.365 14.3849 135.11 14.2713C134.859 14.1529 134.558 14.0938 134.208 14.0938C133.739 14.0938 133.344 14.1932 133.022 14.392C132.7 14.5862 132.539 14.8466 132.539 15.1733C132.539 15.4337 132.643 15.6539 132.851 15.8338C133.059 16.0137 133.417 16.1581 133.924 16.267L135.898 16.6648C136.959 16.8826 137.749 17.233 138.27 17.7159C138.791 18.1989 139.051 18.8333 139.051 19.6193C139.051 20.3343 138.841 20.9616 138.419 21.5014C138.003 22.0412 137.43 22.4626 136.701 22.7656C135.976 23.0639 135.14 23.2131 134.193 23.2131C132.749 23.2131 131.599 22.9124 130.742 22.3111C129.889 21.705 129.39 20.8812 129.243 19.8395L132.219 19.6832C132.309 20.1236 132.527 20.4598 132.872 20.6918C133.218 20.919 133.661 21.0327 134.201 21.0327C134.731 21.0327 135.157 20.9309 135.479 20.7273C135.806 20.5189 135.971 20.2514 135.976 19.9247C135.971 19.6501 135.855 19.4252 135.628 19.25C135.401 19.0701 135.05 18.9328 134.577 18.8381L132.688 18.4616C131.622 18.2486 130.829 17.8793 130.309 17.3537C129.792 16.8281 129.534 16.1581 129.534 15.3438C129.534 14.643 129.724 14.0393 130.103 13.5327C130.486 13.026 131.023 12.6354 131.715 12.3608C132.411 12.0862 133.225 11.9489 134.158 11.9489C135.536 11.9489 136.62 12.2401 137.411 12.8224C138.206 13.4048 138.67 14.1979 138.803 15.2017Z" fill="#38D0FA"/>
</svg>
