<svg width="22" height="16" viewBox="0 0 22 16" fill="none" xmlns="http://www.w3.org/2000/svg">
<path d="M19.72 3.978C19.7346 4.153 19.7346 4.327 19.7346 4.501C19.7346 9.826 15.2019 15.962 6.91817 15.962C4.36608 15.962 1.99515 15.301 0 14.153C0.362349 14.19 0.711277 14.203 1.08816 14.203C3.19404 14.203 5.13215 13.567 6.68108 12.482C4.70047 12.445 3.04082 11.285 2.46822 9.689C2.74669 9.726 3.02628 9.751 3.31929 9.751C3.72302 9.751 4.12898 9.701 4.50587 9.614C2.44026 9.24 0.89357 7.619 0.89357 5.661V5.611C1.49413 5.91 2.19087 6.097 2.92898 6.122C1.71556 5.4 0.92041 4.165 0.92041 2.768C0.92041 2.02 1.14296 1.334 1.53327 0.736C3.75098 3.179 7.08481 4.776 10.8224 4.951C10.753 4.651 10.7105 4.34 10.7105 4.028C10.7105 1.808 12.7191 0 15.2153 0C16.5126 0 17.6835 0.486 18.5066 1.272C19.5243 1.097 20.4995 0.76 21.3651 0.299C21.0308 1.234 20.3184 2.02 19.3845 2.519C20.2915 2.431 21.1706 2.207 21.978 1.895C21.3651 2.693 20.5991 3.404 19.72 3.978Z" fill="white"/>
</svg>
